<svg width="512" height="512" version="1.1" viewBox="0 0 135.47 135.47" xmlns="http://www.w3.org/2000/svg">
 <g transform="translate(0 17.463)">
  <g transform="translate(2.8938 -4.4254)">
   <path d="m64.926 60.87s-40.07-13.974-47.548 0c-9.0553 16.92 14.99 38.895 31.935 47.903 9.2953 4.9412 18.547 6.8887 31.581-0.17742s40.68-31.081 31.581-47.903c-7.5407-13.941-47.548 0.17742-47.548 0.17742z" fill="#e0e0e0"/>
   <path d="m21.29 58.548c0.19092 23.118 36.703 57.735 44.532 57.839 5.6548 0.0752 40.777-35.866 40.274-58.194-0.35749-15.867-27.065-20.713-42.935-20.581-15.604 0.13002-42 5.3316-41.871 20.935z" fill="#f7f7f7"/>
   <path d="m62.452 58.371s-32.6-0.63598-36.194-10.468c-4.7539-13.008 23.409-31.029 37.258-31.048 13.895-0.01907 41.832 18.523 37.081 31.581-3.6807 10.115-38.145 9.9355-38.145 9.9355z" fill="#f7f7f7"/>
   <g transform="translate(-.13141 -1.8185)" fill="#3b3b3b">
    <path d="m51.038 31.735a7.5403 7.7177 0 0 1 6.9612 8.2092 7.5403 7.7177 0 0 1-7.9635 7.1916 7.5403 7.7177 0 0 1-7.0909-8.0921 7.5403 7.7177 0 0 1 7.848-7.3234"/>
    <path d="m77.208 31.735a7.5403 7.7177 0 0 1 6.9612 8.2092 7.5403 7.7177 0 0 1-7.9635 7.1916 7.5403 7.7177 0 0 1-7.0909-8.0921 7.5403 7.7177 0 0 1 7.848-7.3234"/>
   </g>
   <path d="m58.194 47.548 5.1452 7.9839 5.3226-7.9839-5.5-2.4839z" fill="#e0e0e0"/>
   <g transform="translate(63.51 -19.66)" fill="#3b3b3b">
    <path d="m9.8128 113.85-0.12545 4.0773 1.5055 2.4464 1.1291-2.6345 0.06273-3.9518-1.38-1.3173z"/>
    <path d="m14.592 113.85-0.12546 4.0773 1.5055 2.4464 1.1291-2.6345 0.06273-3.9518-1.38-1.3173z"/>
    <path d="m12.263 113.03-0.12545 5.3716 1.5055 3.223 1.1291-3.4709 0.06273-5.2064-1.38-1.7354z"/>
   </g>
   <g transform="translate(37.939 -19.66)" fill="#3b3b3b">
    <path d="m9.8128 113.85-0.12545 4.0773 1.5055 2.4464 1.1291-2.6345 0.06273-3.9518-1.38-1.3173z"/>
    <path d="m14.592 113.85-0.12546 4.0773 1.5055 2.4464 1.1291-2.6345 0.06273-3.9518-1.38-1.3173z"/>
    <path d="m12.263 113.03-0.12545 5.3716 1.5055 3.223 1.1291-3.4709 0.06273-5.2064-1.38-1.7354z"/>
   </g>
   <path d="m37.081 27.425h52.516s-4.6819-8.3693-4.6129-12.952c0.10037-6.6655 7.2742-18.629 7.2742-18.629s-17.9-2.8236-27.145-2.8387c-9.2448-0.015137-28.032 2.8387-28.032 2.8387s8.6672 11.868 8.1613 18.629c-0.38076 5.0886-8.1613 12.952-8.1613 12.952z" fill="#cfcfcf"/>
   <g fill="#cfcfcf" stroke="#fff" stroke-width=".26458">
    <path d="m42.048 21.215s14.289-1.9178 21.468-1.7742c7.7446 0.15493 23.065 2.8387 23.065 2.8387"/>
    <path d="m56.274-2.1283c8.4054 6.9 6.0218 19.069 6.0218 19.069"/>
    <path d="m74.952-2.1283c-8.4054 6.9-6.0218 19.069-6.0218 19.069"/>
    <path d="m48.175-2.1283c8.4054 6.9 6.0218 19.069 6.0218 19.069"/>
    <path d="m83.106-2.1283c-8.4054 6.9-6.0218 19.069-6.0218 19.069"/>
   </g>
  </g>
 </g>
</svg>
